<svg id="Ebene_1" data-name="Ebene 1" xmlns="http://www.w3.org/2000/svg" xmlns:xlink="http://www.w3.org/1999/xlink" viewBox="0 0 1000 410">
  <defs>
    <style>
      .cls-1 {
        fill: none;
      }

      .cls-2 {
        clip-path: url(#clip-path);
      }

      .cls-3 {
        fill: #007273;
      }

      .cls-4 {
        fill: #005a5a;
      }

      .cls-5 {
        fill: #007362;
      }

      .cls-6 {
        fill: #00897d;
      }

      .cls-7 {
        fill: #004035;
      }
    </style>
    <clipPath id="clip-path">
      <rect class="cls-1" x="3.8276" y="1.8261" width="992.3448" height="406.3478"/>
    </clipPath>
  </defs>
  <g class="cls-2">
    <path class="cls-3" d="M792.9989,1.8248h-.0034V14.37h.0034c105.1145,0,190.6287,85.5175,190.6287,190.6321S898.1134,395.6308,792.9989,395.6308A190.5022,190.5022,0,0,1,637.1552,314.586h-15.111c36.1767,56.2322,99.2669,93.5866,170.9547,93.5866,112.0294,0,203.17-91.1411,203.17-203.1706S905.0283,1.8248,792.9989,1.8248"/>
  </g>
  <polygon class="cls-4" points="3.828 121.299 3.828 283.205 45.926 283.205 45.926 219.646 92.088 219.646 92.088 184.002 45.926 184.002 45.926 156.948 92.088 156.948 92.088 121.299 3.828 121.299"/>
  <g class="cls-2">
    <path class="cls-5" d="M164.4552,224.363c0,20.1123,14.8467,34.8152,32.9551,34.8152,18.1018,0,32.9619-14.7029,32.9619-34.8152,0-16.0912-14.86-30.8008-32.9619-30.8008-18.1084,0-32.9551,14.71-32.9551,30.8008m97.4838-.1573c0,37.7558-27.0874,64.3681-64.5287,64.3681-37.4513,0-64.522-26.6123-64.522-64.3681,0-35.28,30.9513-60.0459,64.522-60.0459,33.5774,0,64.5287,24.7658,64.5287,60.0459"/>
  </g>
  <polygon class="cls-6" points="302.74 168.034 333.076 168.034 388.629 239.371 388.933 239.371 388.933 168.034 419.266 168.034 419.266 284.707 388.933 284.707 333.38 213.217 333.076 213.217 333.076 284.707 302.74 284.707 302.74 168.034"/>
  <polygon class="cls-5" points="568.28 121.299 522.321 121.299 460.067 283.208 504.728 283.208 544.892 171.336 545.301 171.336 584.391 283.208 629.259 283.208 568.28 121.299"/>
  <g class="cls-2">
    <path class="cls-4" d="M800.18,247.559v35.6482H670.0584l66.1379-71.9286c9.4506-10.31,18.47-24.9129,18.47-39.7329,0-10.31-7.3-21.0423-18.47-21.0423-11.3776,0-17.6167,8.8117-17.6167,19.7611a38.9923,38.9923,0,0,0,.649,6.8713H672.8619c1.2645-37.15,24.8928-62.2772,63.1169-62.2772,33.922,0,62.4914,22.3369,62.4914,57.54,0,23.1967-9.6547,36.7287-26.2109,51.7527l-25.11,23.4075Z"/>
  </g>
  <polygon class="cls-7" points="840.981 156.946 840.981 121.298 906.262 121.298 906.262 283.207 864.188 283.207 864.188 156.946 840.981 156.946"/>
</svg>
